<?xml version="1.0" encoding="UTF-8"?>
<svg enable-background="new 0 0 24 24" version="1.1" viewBox="0 0 24 24" xml:space="preserve" xmlns="http://www.w3.org/2000/svg">
<style type="text/css">
	.st0{fill:none;stroke:#cccccc;stroke-miterlimit:10;}
	.st1{stroke:#cccccc;stroke-miterlimit:10;}
</style>
	<path class="st0" d="m20.1 23.3h-16.2c-1.8 0-3.2-1.4-3.2-3.2v-16.2c0-1.8 1.4-3.2 3.2-3.2h16.2c1.8 0 3.2 1.4 3.2 3.2v16.2c0 1.8-1.5 3.2-3.2 3.2z"/>
		<path class="st1" d="m8.8 8.6c0-0.6 0.1-1.1 0.3-1.6s0.5-0.8 0.9-1 0.7-0.4 1.1-0.5 0.8-0.2 1.2-0.2c0.6 0 1.1 0.1 1.6 0.3s0.9 0.5 1.3 1c0.3 0.4 0.5 1 0.5 1.6 0 0.3 0 0.6-0.1 0.9s-0.2 0.5-0.4 0.8c-0.2 0.2-0.4 0.4-0.5 0.6-0.1 0.1-0.4 0.3-0.6 0.5-0.4 0.3-0.7 0.5-0.8 0.7-0.2 0.1-0.3 0.3-0.4 0.6-0.1 0.2-0.1 0.5-0.1 0.8v0.5h-1.3v-0.8c0-0.3 0-0.6 0.1-0.8s0.2-0.5 0.4-0.7l0.5-0.5c0.1-0.1 0.4-0.3 0.6-0.5l0.5-0.5 0.4-0.4c0.1-0.2 0.2-0.3 0.3-0.5s0.1-0.4 0.1-0.6c0-0.6-0.2-1.1-0.6-1.4s-0.9-0.5-1.5-0.5c-0.7 0-1.2 0.2-1.6 0.6s-0.6 0.9-0.6 1.6h-1.3zm2.1 7.7c0-0.3 0.1-0.6 0.3-0.8s0.5-0.3 0.8-0.3c0.2 0 0.4 0 0.6 0.1s0.3 0.2 0.4 0.4 0.2 0.4 0.2 0.6c0 0.3-0.1 0.6-0.3 0.8s-0.5 0.3-0.8 0.3-0.6-0.1-0.8-0.3c-0.3-0.2-0.4-0.4-0.4-0.8z"/>
</svg>
