<svg id="Layer_1" data-name="Layer 1" xmlns="http://www.w3.org/2000/svg" viewBox="0 0 148 167.7"><defs><style>.cls-1,.cls-2{fill:#fff;}.cls-1{stroke:#991e20;stroke-miterlimit:10;stroke-width:5px;}.cls-3{fill:#991e20;}.cls-4{fill:#ff901f;}</style></defs><title>Main_Logo</title><path class="cls-1" d="M5.38,173" transform="translate(-1 -5.25)"/><path class="cls-2" d="M5.27,172.34a6.1,6.1,0,0,0-.83.61c-.06-.2-.11-.41-.15-.61Z" transform="translate(-1 -5.25)"/><path class="cls-3" d="M5.27,172.34h-1c0,.2.09.41.15.61a6.1,6.1,0,0,1,.83-.61Z" transform="translate(-1 -5.25)"/><path class="cls-3" d="M75,5.25C34.2,5.25,1,38.77,1,80a75,75,0,0,0,3.39,22.41l.9,2.87H144.71l.9-2.87A75,75,0,0,0,149,80C149,38.77,115.8,5.25,75,5.25Zm0,8.19c33.54,0,61.31,25.49,65.32,58.31H9.68C13.69,38.93,41.46,13.44,75,13.44ZM140.07,90H9.93c-.14-.9-.26-1.81-.35-2.72H140.42C140.33,88.18,140.21,89.09,140.07,90Zm.73-8.86H9.2c0-.39,0-.78,0-1.17,0-1,0-2.07.08-3.09H140.74c.06,1,.08,2,.08,3.09C140.82,80.35,140.82,80.74,140.8,81.13Z" transform="translate(-1 -5.25)"/><path class="cls-4" d="M27.46,137.07H19.08V115.71H35.9a33.38,33.38,0,0,1,5.94.48,17.16,17.16,0,0,1,4.46,1.36,7.86,7.86,0,0,1,2.82,2.15,4.55,4.55,0,0,1,1,2.87,4.28,4.28,0,0,1-.49,2,5.7,5.7,0,0,1-1.42,1.73,9.42,9.42,0,0,1-2.28,1.4,16.26,16.26,0,0,1-3.09,1l8.44,8.43H41.78l-7.47-7.74H27.46Zm0-11.17h7.35a11.47,11.47,0,0,0,4.94-.86,2.65,2.65,0,0,0,1.75-2.41,2.15,2.15,0,0,0-.47-1.37,3.69,3.69,0,0,0-1.35-1.05,8.25,8.25,0,0,0-2.13-.65,15.18,15.18,0,0,0-2.82-.23H27.46Z" transform="translate(-1 -5.25)"/><path class="cls-4" d="M55.13,137.07V115.71h8.38v21.36Z" transform="translate(-1 -5.25)"/><path class="cls-4" d="M76.12,131.14a2.06,2.06,0,0,0,.8,1.17,5.79,5.79,0,0,0,1.76.9,13.64,13.64,0,0,0,2.57.57,24.86,24.86,0,0,0,3.25.2,21.26,21.26,0,0,0,3-.2,11.83,11.83,0,0,0,2.34-.56,4.55,4.55,0,0,0,1.54-.87,1.47,1.47,0,0,0,.56-1.11,1.33,1.33,0,0,0-.39-.92,3.5,3.5,0,0,0-1.22-.74,13.44,13.44,0,0,0-2.15-.58c-.88-.17-1.93-.33-3.15-.47l-5.22-.59q-10.87-1.22-10.88-6.1A4,4,0,0,1,70,119.1a8.74,8.74,0,0,1,3.09-2.1A20.37,20.37,0,0,1,78,115.64a38,38,0,0,1,6.3-.47,35.83,35.83,0,0,1,6.08.47,22.07,22.07,0,0,1,4.8,1.33,9.58,9.58,0,0,1,3.19,2,4,4,0,0,1,1.25,2.61H91.69a2.09,2.09,0,0,0-.75-1.16,5.68,5.68,0,0,0-1.57-.89,11.88,11.88,0,0,0-2.25-.57,20.7,20.7,0,0,0-5.67,0,10.44,10.44,0,0,0-2.2.53,3.93,3.93,0,0,0-1.41.84,1.56,1.56,0,0,0-.5,1.11c0,.66.51,1.19,1.54,1.6a21.86,21.86,0,0,0,5.06,1l4.83.55a44,44,0,0,1,5.21.87,15.87,15.87,0,0,1,3.58,1.26,5.64,5.64,0,0,1,2.06,1.72,3.8,3.8,0,0,1,.67,2.22,4.3,4.3,0,0,1-1.12,2.9,8.64,8.64,0,0,1-3.24,2.18,21.76,21.76,0,0,1-5.1,1.38,47.58,47.58,0,0,1-13.27,0,22.56,22.56,0,0,1-5-1.29,9.71,9.71,0,0,1-3.27-2A4.26,4.26,0,0,1,68,131.14Z" transform="translate(-1 -5.25)"/><path class="cls-4" d="M131.32,137.07H104.79V115.71h26.53v3.82H113.17v5H130.3v3.54H113.17v5.19h18.15Z" transform="translate(-1 -5.25)"/></svg>