<?xml version="1.0" encoding="UTF-8"?>
<svg enable-background="new 0 0 24 24" version="1.1" viewBox="0 0 24 24" xml:space="preserve" xmlns="http://www.w3.org/2000/svg">
<style type="text/css">
	.st0{fill:none;stroke:#cccccc;stroke-miterlimit:10;}
</style>
	<path class="st0" d="m18.7 9.5v6c0 1-0.8 1.8-1.8 1.8h-10.2c-1 0-1.8-0.8-1.8-1.8v-7.3c0-0.7 0.6-1.5 1.3-1.5h4.7c0.6 0 1.1 0.4 1.2 1h4.7c1.1 0 1.9 0.8 1.9 1.8z"/>
	<path class="st0" d="m20.1 23.3h-16.2c-1.8 0-3.2-1.4-3.2-3.2v-16.2c0-1.8 1.4-3.2 3.2-3.2h16.2c1.8 0 3.2 1.4 3.2 3.2v16.2c0 1.8-1.5 3.2-3.2 3.2z"/>
		<polyline class="st0" points="13.8 11 10.4 14.5 6.8 11.1"/>
		<line class="st0" x1="10.3" x2="10.3" y1="7.2" y2="14.8"/>
</svg>
