<?xml version="1.0" encoding="UTF-8"?>
<svg enable-background="new 0 0 24 24" version="1.1" viewBox="0 0 24 24" xml:space="preserve" xmlns="http://www.w3.org/2000/svg">
<style type="text/css">
	.st0{fill:none;stroke:#cccccc;stroke-miterlimit:10;}
</style>
	<path class="st0" d="m20.1 23.3h-16.2c-1.8 0-3.2-1.4-3.2-3.2v-16.2c0-1.8 1.4-3.2 3.2-3.2h16.2c1.8 0 3.2 1.4 3.2 3.2v16.2c0 1.8-1.5 3.2-3.2 3.2z"/>
	<path class="st0" d="m16.8 17.3h-10.1c-1 0-1.8-0.8-1.8-1.8v-8.2c0-1 0.8-1.8 1.8-1.8h10.1c1 0 1.8 0.8 1.8 1.8v8.2c0.1 1-0.8 1.8-1.8 1.8z"/>
	<line class="st0" x1="4.9" x2="18.7" y1="7.6" y2="7.6"/>
	<path class="st0" d="m12.1 14.7h-0.7l0.1-1.9-1.6 1-0.4-0.6 1.7-0.9-1.7-0.9 0.4-0.6 1.6 1.1-0.1-1.9h0.7l-0.1 1.9 1.6-1.1 0.4 0.6-1.7 0.9 1.7 0.9-0.4 0.6-1.6-1 0.1 1.9z"/>
</svg>
